<svg width="236" height="55" viewBox="0 0 236 55" fill="none" xmlns="http://www.w3.org/2000/svg">
<rect width="236" height="54.4658" rx="8" fill="white"/>
<path d="M9.99025 27.3369C9.99025 24.0089 10.7103 21.0489 12.1503 18.4569C13.5903 15.8329 15.5903 13.8009 18.1503 12.3609C20.7423 10.8889 23.6703 10.1529 26.9343 10.1529C30.9343 10.1529 34.3583 11.2089 37.2063 13.3209C40.0543 15.4329 41.9583 18.3129 42.9183 21.9609H33.8943C33.2223 20.5529 32.2623 19.4809 31.0143 18.7449C29.7983 18.0089 28.4063 17.6409 26.8383 17.6409C24.3103 17.6409 22.2623 18.5209 20.6943 20.2809C19.1263 22.0409 18.3423 24.3929 18.3423 27.3369C18.3423 30.2809 19.1263 32.6329 20.6943 34.3929C22.2623 36.1529 24.3103 37.0329 26.8383 37.0329C28.4063 37.0329 29.7983 36.6649 31.0143 35.9289C32.2623 35.1929 33.2223 34.1209 33.8943 32.7129H42.9183C41.9583 36.3609 40.0543 39.2409 37.2063 41.3529C34.3583 43.4329 30.9343 44.4729 26.9343 44.4729C23.6703 44.4729 20.7423 43.7529 18.1503 42.3129C15.5903 40.8409 13.5903 38.8089 12.1503 36.2169C10.7103 33.6249 9.99025 30.6649 9.99025 27.3369ZM56.0088 10.5369V30.6969C56.0088 32.7129 56.5048 34.2649 57.4968 35.3529C58.4888 36.4409 59.9448 36.9849 61.8648 36.9849C63.7848 36.9849 65.2568 36.4409 66.2808 35.3529C67.3048 34.2649 67.8168 32.7129 67.8168 30.6969V10.5369H76.0248V30.6489C76.0248 33.6569 75.3848 36.2009 74.1048 38.2809C72.8248 40.3609 71.0968 41.9289 68.9208 42.9849C66.7768 44.0409 64.3768 44.5689 61.7208 44.5689C59.0648 44.5689 56.6808 44.0569 54.5688 43.0329C52.4888 41.9769 50.8408 40.4089 49.6248 38.3289C48.4088 36.2169 47.8008 33.6569 47.8008 30.6489V10.5369H56.0088ZM89.9965 37.8969H100.749V44.2329H81.7885V10.5369H89.9965V37.8969ZM121.848 44.2329L114.84 31.5129H112.872V44.2329H104.664V10.5369H118.44C121.096 10.5369 123.352 11.0009 125.208 11.9289C127.096 12.8569 128.504 14.1369 129.432 15.7689C130.36 17.3689 130.824 19.1609 130.824 21.1449C130.824 23.3849 130.184 25.3849 128.904 27.1449C127.656 28.9049 125.8 30.1529 123.336 30.8889L131.112 44.2329H121.848ZM112.872 25.7049H117.96C119.464 25.7049 120.584 25.3369 121.32 24.6009C122.088 23.8649 122.472 22.8249 122.472 21.4809C122.472 20.2009 122.088 19.1929 121.32 18.4569C120.584 17.7209 119.464 17.3529 117.96 17.3529H112.872V25.7049ZM144.184 17.1129V23.9289H155.176V30.2649H144.184V37.6569H156.616V44.2329H135.976V10.5369H156.616V17.1129H144.184ZM182.585 44.2329L175.721 33.9129L169.673 44.2329H160.361L171.161 27.0969L160.121 10.5369H169.673L176.441 20.7129L182.393 10.5369H191.705L181.001 27.5289L192.137 44.2329H182.585ZM216.897 44.2329L210.033 33.9129L203.985 44.2329H194.673L205.473 27.0969L194.433 10.5369H203.985L210.753 20.7129L216.705 10.5369H226.017L215.313 27.5289L226.449 44.2329H216.897Z" fill="url(#paint0_linear_12_13)"/>
<defs>
<linearGradient id="paint0_linear_12_13" x1="118.5" y1="27.7329" x2="117.5" y2="27.7329" gradientUnits="userSpaceOnUse">
<stop offset="0.27" stop-color="#006EFE" stop-opacity="0.8"/>
<stop offset="0.865979" stop-color="#010D1B" stop-opacity="0.7"/>
</linearGradient>
</defs>
</svg>
